<?xml version="1.0" encoding="UTF-8"?>
<svg width="960px" height="960px" viewBox="0 0 960 960" version="1.1" xmlns="http://www.w3.org/2000/svg" xmlns:xlink="http://www.w3.org/1999/xlink">
    <title>drivers/ms-1/assets/icon</title>
    <g id="/drivers/ms-1/assets/icon" stroke="none" fill="none" fill-rule="evenodd" stroke-width="1">
        <g id="Sensereo-MS-1" transform="translate(-1, 0)" fill="#000000">
            <path d="M480.649495,164.175409 L483.782946,164.142221 C692.085058,162.11076 825.56864,181.966963 890.104593,228.779624 L892.039129,230.206446 C919.386329,250.716845 934.184833,282.084614 937.172685,321.156527 C939.350044,349.629688 935.38775,382.834778 925.600683,421.159814 L925.382129,422.007364 L925.388401,422.015691 C930.798079,429.834738 935.01805,438.333762 937.954881,447.445427 L938.218329,448.275446 C943.353542,464.708131 944.131138,501.206601 942.312261,570.815019 L942.203492,574.898996 C942.036087,581.059654 941.462068,587.202535 940.485111,593.287993 C930.281136,656.843914 914.940885,699.873233 890.323401,724.490717 C867.053449,747.760669 831.710301,764.306665 787.625164,776.405217 C755.564611,785.20379 719.847386,791.107767 691.889011,793.104794 L690.106489,793.227405 L688.266079,793.345103 C657.449489,795.247626 589.551989,796.176629 483.199036,796.206444 L468.171416,796.206444 L452.712673,796.185722 C357.678749,796.012764 297.231635,795.028345 270.16669,793.164574 L269.314247,793.104794 C241.355873,791.107767 205.638648,785.20379 173.578094,776.405217 C129.492958,764.306665 94.1498102,747.760669 70.8798581,724.490717 C46.2623743,699.873233 30.9221223,656.843914 20.7180768,593.287551 C19.7411903,587.202535 19.1671716,581.059654 18.9994785,574.888341 L18.7836808,566.62648 L18.6394944,560.691486 C17.1599708,497.635605 18.1044022,463.893136 22.9849303,448.275446 C25.8289721,439.174512 29.9455829,430.677815 35.2427871,422.851641 L35.8211294,422.007364 L35.6025759,421.159814 C25.932021,383.291028 21.9483804,350.421011 23.955421,322.175438 L24.030574,321.156527 C27.0184261,282.084614 41.8169299,250.716845 69.1641294,230.206446 C133.241503,182.148416 268.36886,161.873009 480.649495,164.175409 Z M481.083,490.208 L475.052667,490.21649 C343.236977,490.476699 248.401561,495.448893 190.811883,505.069757 C141.374741,513.328668 101.032086,528.416451 69.7061205,550.225499 C62.6474866,555.140172 58.6108965,563.338258 59.0193674,571.928853 L59.1528078,574.730732 L59.015,574.737 L59.0248174,575.01226 C59.1815082,579.010373 59.5780296,582.995841 60.2123715,586.94715 C69.1769308,642.783316 82.1607766,679.203093 99.1641294,696.206446 C137.164129,734.206446 230.164129,750.206446 272.164129,753.206446 L273.867759,753.323451 L275.632903,753.435859 C305.236339,755.253593 372.704369,756.176916 478.039129,756.206446 L492.926508,756.201062 L508.236239,756.18129 C603.363169,756.012759 663.630799,755.021327 689.039129,753.206446 C731.039129,750.206446 824.039129,734.206446 862.039129,696.206446 C879.042482,679.203093 892.026328,642.783316 900.990887,586.94715 C901.640083,582.903315 902.040191,578.823702 902.189054,574.731372 L902.175451,574.730732 L902.218252,573.812468 L902.322385,569.901638 C902.060906,562.063796 898.123293,554.752019 891.622138,550.225499 C860.296173,528.416451 819.953517,513.328668 770.516376,505.069757 C712.920821,495.447911 618.071927,490.475685 486.235239,490.216411 L481.083,490.208 Z M480.164129,542.206446 C555.619803,542.206446 626.439137,551.938809 679.122792,569.056243 C734.49777,587.048113 767.164129,612.141525 767.164129,642.206446 C767.164129,672.271366 734.49777,697.364779 679.122792,715.356649 C626.439137,732.474082 555.619803,742.206446 480.164129,742.206446 C404.708456,742.206446 333.889122,732.474082 281.205467,715.356649 C225.830489,697.364779 193.164129,672.271366 193.164129,642.206446 C193.164129,612.141525 225.830489,587.048113 281.205467,569.056243 C333.889122,551.938809 404.708456,542.206446 480.164129,542.206446 Z M480.164129,562.206446 C406.689281,562.206446 337.926617,571.656171 287.385635,588.077428 C239.535977,603.624249 213.164129,623.882388 213.164129,642.206446 C213.164129,660.530504 239.535977,680.788643 287.385635,696.335463 C337.926617,712.756721 406.689281,722.206446 480.164129,722.206446 C553.638978,722.206446 622.401642,712.756721 672.942623,696.335463 C720.792282,680.788643 747.164129,660.530504 747.164129,642.206446 C747.164129,623.882388 720.792282,603.624249 672.942623,588.077428 C622.401642,571.656171 553.638978,562.206446 480.164129,562.206446 Z M479.164129,625.206446 C504.2762,625.206446 527.905309,628.204727 545.677219,633.5363 C554.838254,636.28461 562.350315,639.620405 567.876795,643.540225 C574.911893,648.530077 579.164129,654.764125 579.164129,662.206446 C579.164129,669.648767 574.911893,675.882815 567.876795,680.872667 C562.350315,684.792487 554.838254,688.128281 545.677219,690.876592 C527.905309,696.208165 504.2762,699.206446 479.164129,699.206446 C454.052059,699.206446 430.42295,696.208165 412.65104,690.876592 C403.490005,688.128281 395.977943,684.792487 390.451463,680.872667 C383.416365,675.882815 379.164129,669.648767 379.164129,662.206446 C379.164129,654.764125 383.416365,648.530077 390.451463,643.540225 C395.977943,639.620405 403.490005,636.28461 412.65104,633.5363 C430.42295,628.204727 454.052059,625.206446 479.164129,625.206446 Z M479.164129,645.206446 C455.887222,645.206446 434.164779,647.962791 418.397998,652.692826 C411.151599,654.866745 405.538578,657.359255 402.022088,659.85343 C400.817381,660.707904 399.967858,661.486294 399.462597,662.118697 L399.394129,662.206446 L399.462597,662.294195 C399.928992,662.877952 400.688722,663.586099 401.750379,664.363658 L402.022088,664.559462 C405.538578,667.053637 411.151599,669.546146 418.397998,671.720066 C434.164779,676.4501 455.887222,679.206446 479.164129,679.206446 C502.441037,679.206446 524.16348,676.4501 539.930261,671.720066 C547.176659,669.546146 552.789681,667.053637 556.306171,664.559462 C557.510878,663.704988 558.360401,662.926598 558.865662,662.294195 L558.933129,662.205446 L558.865662,662.118697 C558.399267,661.53494 557.639537,660.826792 556.57788,660.049234 L556.306171,659.85343 C552.789681,657.359255 547.176659,654.866745 539.930261,652.692826 C524.16348,647.962791 502.441037,645.206446 479.164129,645.206446 Z M480,608 C482.761424,608 485,609.119288 485,610.5 C485,611.837565 482.899149,612.929789 480.257299,612.996747 L480,613 C477.238576,613 475,611.880712 475,610.5 C475,609.119288 477.238576,608 480,608 Z M480,601 C482.761424,601 485,602.119288 485,603.5 C485,604.837565 482.899149,605.929789 480.257299,605.996747 L480,606 C477.238576,606 475,604.880712 475,603.5 C475,602.119288 477.238576,601 480,601 Z M496.5,601 C498.985281,601 501,601.895431 501,603 C501,604.104569 498.985281,605 496.5,605 C494.014719,605 492,604.104569 492,603 C492,601.895431 494.014719,601 496.5,601 Z M463.5,601 C465.985281,601 468,601.895431 468,603 C468,604.104569 465.985281,605 463.5,605 C461.014719,605 459,604.104569 459,603 C459,601.895431 461.014719,601 463.5,601 Z M516,594 C518.209139,594 520,594.895431 520,596 C520,597.104569 518.209139,598 516,598 C513.790861,598 512,597.104569 512,596 C512,594.895431 513.790861,594 516,594 Z M498.5,593 C501.537566,593 504,594.119288 504,595.5 C504,596.880712 501.537566,598 498.5,598 C495.462434,598 493,596.880712 493,595.5 C493,594.119288 495.462434,593 498.5,593 Z M461.5,593 C464.537566,593 467,594.119288 467,595.5 C467,596.880712 464.537566,598 461.5,598 C458.462434,598 456,596.880712 456,595.5 C456,594.119288 458.462434,593 461.5,593 Z M444,594 C446.209139,594 448,594.895431 448,596 C448,597.104569 446.209139,598 444,598 C441.790861,598 440,597.104569 440,596 C440,594.895431 441.790861,594 444,594 Z M480,593 C483.313708,593 486,594.119288 486,595.5 C486,596.842359 483.460874,597.937616 480.274646,597.997427 L480,598 C476.686292,598 474,596.880712 474,595.5 C474,594.119288 476.686292,593 480,593 Z M519.5,586 C522.537566,586 525,587.119288 525,588.5 C525,589.880712 522.537566,591 519.5,591 C516.462434,591 514,589.880712 514,588.5 C514,587.119288 516.462434,586 519.5,586 Z M440.5,586 C443.537566,586 446,587.119288 446,588.5 C446,589.880712 443.537566,591 440.5,591 C437.462434,591 435,589.880712 435,588.5 C435,587.119288 437.462434,586 440.5,586 Z M459.5,586 C463.089851,586 466,587.119288 466,588.5 C466,589.880712 463.089851,591 459.5,591 C455.910149,591 453,589.880712 453,588.5 C453,587.119288 455.910149,586 459.5,586 Z M480,586 C483.865993,586 487,587.119288 487,588.5 C487,589.846194 484.020735,590.943872 480.288539,590.997915 L480,591 C476.134007,591 473,589.880712 473,588.5 C473,587.119288 476.134007,586 480,586 Z M538.5,587 C540.985281,587 543,587.895431 543,589 C543,590.104569 540.985281,591 538.5,591 C536.014719,591 534,590.104569 534,589 C534,587.895431 536.014719,587 538.5,587 Z M500.5,586 C504.089851,586 507,587.119288 507,588.5 C507,589.880712 504.089851,591 500.5,591 C496.910149,591 494,589.880712 494,588.5 C494,587.119288 496.910149,586 500.5,586 Z M421.5,587 C423.985281,587 426,587.895431 426,589 C426,590.104569 423.985281,591 421.5,591 C419.014719,591 417,590.104569 417,589 C417,587.895431 419.014719,587 421.5,587 Z M558.5,582 C560.432997,582 562,582.895431 562,584 C562,585.104569 560.432997,586 558.5,586 C556.567003,586 555,585.104569 555,584 C555,582.895431 556.567003,582 558.5,582 Z M401.5,582 C403.432997,582 405,582.895431 405,584 C405,585.104569 403.432997,586 401.5,586 C399.567003,586 398,585.104569 398,584 C398,582.895431 399.567003,582 401.5,582 Z M542.5,580 C545.537566,580 548,581.119288 548,582.5 C548,583.880712 545.537566,585 542.5,585 C539.462434,585 537,583.880712 537,582.5 C537,581.119288 539.462434,580 542.5,580 Z M417.5,580 C420.537566,580 423,581.119288 423,582.5 C423,583.880712 420.537566,585 417.5,585 C414.462434,585 412,583.880712 412,582.5 C412,581.119288 414.462434,580 417.5,580 Z M438,579 C441.865993,579 445,580.119288 445,581.5 C445,582.880712 441.865993,584 438,584 C434.134007,584 431,582.880712 431,581.5 C431,580.119288 434.134007,579 438,579 Z M522,579 C525.865993,579 529,580.119288 529,581.5 C529,582.880712 525.865993,584 522,584 C518.134007,584 515,582.880712 515,581.5 C515,580.119288 518.134007,579 522,579 Z M501.700082,578.001724 L502,578 C506.418278,578 510,579.119288 510,580.5 C510,581.849332 506.579233,582.948988 502.299918,582.998276 L502,583 C497.581722,583 494,581.880712 494,580.5 C494,579.150668 497.420767,578.051012 501.700082,578.001724 L501.700082,578.001724 Z M480,578 C483.865993,578 487,579.119288 487,580.5 C487,581.846194 484.020735,582.943872 480.288539,582.997915 L480,583 C476.134007,583 473,581.880712 473,580.5 C473,579.119288 476.134007,578 480,578 Z M457.700082,578.001724 L458,578 C462.418278,578 466,579.119288 466,580.5 C466,581.849332 462.579233,582.948988 458.299918,582.998276 L458,583 C453.581722,583 450,581.880712 450,580.5 C450,579.150668 453.420767,578.051012 457.700082,578.001724 L457.700082,578.001724 Z M580.5,576 C582.432997,576 584,576.895431 584,578 C584,579.104569 582.432997,580 580.5,580 C578.567003,580 577,579.104569 577,578 C577,576.895431 578.567003,576 580.5,576 Z M564.5,575 C567.537566,575 570,576.119288 570,577.5 C570,578.880712 567.537566,580 564.5,580 C561.462434,580 559,578.880712 559,577.5 C559,576.119288 561.462434,575 564.5,575 Z M395.5,575 C398.537566,575 401,576.119288 401,577.5 C401,578.880712 398.537566,580 395.5,580 C392.462434,580 390,578.880712 390,577.5 C390,576.119288 392.462434,575 395.5,575 Z M379.5,576 C381.432997,576 383,576.895431 383,578 C383,579.104569 381.432997,580 379.5,580 C377.567003,580 376,579.104569 376,578 C376,576.895431 377.567003,576 379.5,576 Z M546.5,572 C550.089851,572 553,573.343146 553,575 C553,576.656854 550.089851,578 546.5,578 C542.910149,578 540,576.656854 540,575 C540,573.343146 542.910149,572 546.5,572 Z M413.5,572 C417.089851,572 420,573.343146 420,575 C420,576.656854 417.089851,578 413.5,578 C409.910149,578 407,576.656854 407,575 C407,573.343146 409.910149,572 413.5,572 Z M434,570 C438.418278,570 442,571.343146 442,573 C442,574.656854 438.418278,576 434,576 C429.581722,576 426,574.656854 426,573 C426,571.343146 429.581722,570 434,570 Z M526,570 C530.418278,570 534,571.343146 534,573 C534,574.656854 530.418278,576 526,576 C521.581722,576 518,574.656854 518,573 C518,571.343146 521.581722,570 526,570 Z M480,569 C484.418278,569 488,570.343146 488,572 C488,573.619198 484.579233,574.938786 480.299918,574.997931 L480,575 C475.581722,575 472,573.656854 472,572 C472,570.343146 475.581722,569 480,569 Z M456.195132,569.001894 L456.5,569 C461.19442,569 465,570.343146 465,572 C465,573.620836 461.358082,574.941454 456.804868,574.998106 L456.5,575 C451.80558,575 448,573.656854 448,572 C448,570.379164 451.641918,569.058546 456.195132,569.001894 L456.195132,569.001894 Z M503.195132,569.001894 L503.5,569 C508.19442,569 512,570.343146 512,572 C512,573.620836 508.358082,574.941454 503.804868,574.998106 L503.5,575 C498.80558,575 495,573.656854 495,572 C495,570.379164 498.641918,569.058546 503.195132,569.001894 L503.195132,569.001894 Z M480.180323,384.206433 L479.480505,384.201732 L472.275587,384.199365 L465.287738,384.207062 C351.742841,384.409864 267.107091,388.389861 211.540483,396.111275 C154.220154,404.076383 107.761853,418.841394 72.1422519,440.277723 C67.092389,446.302282 63.4331921,452.945445 61.1641294,460.206446 L61.0437664,460.60839 C59.0971404,467.385812 58.0963539,484.567865 58.0396473,512.154548 L58.0396473,515.729683 L58.0490951,519.702923 L58.0637527,522.730315 C58.0846556,526.304099 58.118867,530.024276 58.1663869,533.890847 L58.2784339,533.811847 C92.2174771,510.183582 135.323061,494.062488 187.516376,485.343135 C245.717528,475.620119 339.841646,470.602179 470.14461,470.22829 L479.4191,470.207816 L483.15904,470.206447 C617.630331,470.39935 714.4231,475.421714 773.811883,485.343135 C825.483265,493.975295 868.247761,509.8619 902.028904,533.105251 L903.037,533.803 L903.055457,532.326999 L903.100156,527.983412 L903.135394,523.76933 C903.148919,521.925184 903.163611,520.11941 903.163611,518.352007 L903.163611,513.010885 C903.126675,484.355796 902.085339,466.754316 900.039129,460.206446 C897.745446,452.86666 894.031298,446.158191 888.896684,440.081041 C854.65952,418.76349 808.962911,404.056207 751.787776,396.111275 C693.345578,387.990275 602.747714,384.007952 480.180323,384.206433 Z M481.419,281.209 L476.242702,281.220872 C363.530132,281.577614 275.421898,287.864727 212.048924,300.027217 C155.529368,310.874405 118.477076,327.495109 100.860021,349.040006 C98.3263733,352.138567 96.7807184,355.926063 96.4229731,359.912663 L92.1566385,407.446797 C96.3898742,405.568571 100.725702,403.759948 105.1641,402.020809 L105.164129,362.706446 C105.164129,357.459741 109.417424,353.206446 114.664129,353.206446 C119.910835,353.206446 124.164129,357.459741 124.164129,362.706446 L124.163826,395.204725 C129.689987,393.394033 135.356588,391.678282 141.163593,390.057283 L141.164129,349.706446 C141.164129,344.459741 145.417424,340.206446 150.664129,340.206446 C155.910835,340.206446 160.164129,344.459741 160.164129,349.706446 L160.164562,385.207376 C166.034741,383.842406 172.034674,382.564837 178.16433,381.3745 L178.164129,338.706446 C178.164129,333.459741 182.417424,329.206446 187.664129,329.206446 C192.910835,329.206446 197.164129,333.459741 197.164129,338.706446 L197.164016,378.02982 C200.99209,377.422539 204.866679,376.846483 208.787776,376.301616 C210.873394,376.011803 212.998038,375.727212 215.161716,375.447841 L215.164129,330.706446 C215.164129,325.459741 219.417424,321.206446 224.664129,321.206446 C229.910835,321.206446 234.164129,325.459741 234.164129,330.706446 L234.162688,373.233547 L237.833778,372.854961 C242.152221,372.418017 246.59493,371.997662 251.161951,371.593885 L251.164129,325.706446 C251.164129,320.459741 255.417424,316.206446 260.664129,316.206446 C265.910835,316.206446 270.164129,320.459741 270.164129,325.706446 L270.162543,370.062074 C275.986984,369.634812 281.987169,369.230956 288.163173,368.850489 L288.164129,323.706446 C288.164129,318.459741 292.417424,314.206446 297.664129,314.206446 C302.910835,314.206446 307.164129,318.459741 307.164129,323.706446 L307.162432,367.782115 C313.020568,367.482472 319.02041,367.201657 325.162012,366.939658 L325.164129,321.706446 C325.164129,316.459741 329.417424,312.206446 334.664129,312.206446 C339.910835,312.206446 344.164129,316.459741 344.164129,321.706446 L344.164007,366.204799 L349.759851,366.015632 C353.514001,365.892648 357.315329,365.775917 361.163846,365.665437 L361.164129,321.706446 C361.164129,316.459741 365.417424,312.206446 370.664129,312.206446 C375.910835,312.206446 380.164129,316.459741 380.164129,321.706446 L380.163593,365.179418 L386.095097,365.050822 C390.072226,364.968107 394.094946,364.891424 398.163264,364.820771 L398.164129,321.706446 C398.164129,316.459741 402.417424,312.206446 407.664129,312.206446 C412.910835,312.206446 417.164129,316.459741 417.164129,321.706446 L417.162252,364.538741 L423.9044,364.460672 C427.29477,364.424186 430.714085,364.391523 434.162351,364.362681 L434.164129,321.706446 C434.164129,316.459741 438.417424,312.206446 443.664129,312.206446 C448.910835,312.206446 453.164129,316.459741 453.164129,321.706446 L453.163688,364.243651 L459.764058,364.220243 C464.186293,364.207536 468.652507,364.200628 473.162708,364.199516 L473.164129,321.706446 C473.164129,316.459741 477.417424,312.206446 482.664129,312.206446 C487.910835,312.206446 492.164129,316.459741 492.164129,321.706446 L492.165558,364.200394 L499.423319,364.210075 C503.032902,364.217458 506.61354,364.228656 510.165238,364.243671 L510.164129,321.706446 C510.164129,316.459741 514.417424,312.206446 519.664129,312.206446 C524.910835,312.206446 529.164129,316.459741 529.164129,321.706446 L529.166558,364.362714 C534.913712,364.410788 540.580441,364.469476 546.166769,364.538784 L546.164129,321.706446 C546.164129,316.459741 550.417424,312.206446 555.664129,312.206446 C560.910835,312.206446 565.164129,316.459741 565.164129,321.706446 L565.166248,364.82083 L571.234327,364.931332 C575.256914,365.008014 579.233907,365.090727 583.165314,365.179471 L583.164129,321.706446 C583.164129,316.459741 587.417424,312.206446 592.664129,312.206446 C597.910835,312.206446 602.164129,316.459741 602.164129,321.706446 L602.16544,365.665504 L607.902923,365.835916 L613.569623,366.015707 C615.446727,366.0772 617.312035,366.140257 619.165549,366.204878 L619.164129,321.706446 C619.164129,316.459741 623.417424,312.206446 628.664129,312.206446 C633.910835,312.206446 638.164129,316.459741 638.164129,321.706446 L638.166806,366.93971 L643.396383,367.168892 C647.725432,367.363716 651.982157,367.568143 656.166578,367.782176 L656.164129,323.706446 C656.164129,318.459741 660.417424,314.206446 665.664129,314.206446 C670.910835,314.206446 675.164129,318.459741 675.164129,323.706446 L675.165978,368.85056 C681.341941,369.231025 687.342077,369.634879 693.166466,370.062138 L693.164129,325.706446 C693.164129,320.459741 697.417424,316.206446 702.664129,316.206446 C707.910835,316.206446 712.164129,320.459741 712.164129,325.706446 L712.16671,371.593925 C718.038825,372.113088 723.705422,372.659658 729.166601,373.233656 L729.164129,330.706446 C729.164129,325.459741 733.417424,321.206446 738.664129,321.206446 C743.910835,321.206446 748.164129,325.459741 748.164129,330.706446 L748.166553,375.447843 L751.382791,375.870814 C752.445112,376.013109 753.497676,376.15671 754.540483,376.301616 C758.464723,376.84692 762.339627,377.423475 766.165189,378.031324 L766.164129,338.706446 C766.164129,333.459741 770.417424,329.206446 775.664129,329.206446 C780.910835,329.206446 785.164129,333.459741 785.164129,338.706446 L785.164961,381.386732 C791.303885,382.584642 797.303855,383.87087 803.164846,385.24562 L803.164129,349.706446 C803.164129,344.459741 807.417424,340.206446 812.664129,340.206446 C817.910835,340.206446 822.164129,344.459741 822.164129,349.706446 L822.164543,390.149983 C827.984088,391.797047 833.650931,393.541601 839.165042,395.383879 L839.164129,362.706446 C839.164129,357.459741 843.417424,353.206446 848.664129,353.206446 C853.910835,353.206446 858.164129,357.459741 858.164129,362.706446 L858.165076,402.361694 C862.266032,404.013397 866.270167,405.727212 870.177466,407.503257 L865.905286,359.912663 C865.54754,355.926063 864.001885,352.138567 861.468237,349.040006 C843.851183,327.495109 806.79889,310.874405 750.279335,300.027217 C686.899894,287.863486 598.780145,281.576331 486.051053,281.220763 L481.419,281.209 Z M94.8302323,260.980319 L93.1641294,262.206446 C62.4622468,285.232858 55.5520919,332.312445 72.4336649,403.445208 L76.5030228,358.125044 C77.218502,350.15197 80.3098118,342.576979 85.3771275,336.379832 C106.607793,310.415645 147.585948,292.0339 208.279335,280.385674 C272.33012,268.0931 360.290275,261.727477 472.286318,261.235665 L480.17064,261.208413 L483.154046,261.206451 C598.437886,261.47013 688.691006,267.842236 754.048924,280.385674 C814.742311,292.0339 855.720466,310.415645 876.951131,336.379832 C882.018447,342.576979 885.109757,350.15197 885.825236,358.125044 L889.581094,399.964342 C905.418077,330.774464 898.237422,284.855165 868.039129,262.206446 C813.802367,221.528874 685.846999,202.173498 484.173027,204.140319 L480.601129,204.179364 L477.030232,204.140319 C277.39337,202.193365 149.99337,221.140032 94.8302323,260.980319 Z" id="Shape" fill-rule="nonzero"></path>
        </g>
    </g>
</svg>