<svg width="960px" height="960px" viewBox="0 0 960 960" version="1.1" xmlns="http://www.w3.org/2000/svg" xmlns:xlink="http://www.w3.org/1999/xlink" transform="rotate(-90)">
    <title>com.abe/pair/assets/pair</title>
    <style type="text/css">
        #button {
            animation: pair 15s infinite;
        } 
        
        @keyframes pair {
            5%, 37%, 75% {
                fill: #0074CC;  
            }
            0%, 40%, 73%, 77%, 100% {
                fill: rgba(255,255,255,0);
            }
        }
        #led {
            animation: flash 15s infinite;
        }
        
        @keyframes flash {
            0%,32%, 35%, 37%, 39%, 41%,43%,45%,47%,49%,51%,53%,55%,57%,59%,61%,63%,65%,67%,69%,71%,73%,75%,77%,91%,93%,95%,97%, 
            100% {
                fill: rgba(255,255,255,0);
            }
            34%, 36%, 38%, 40%, 42%, 44%,46%,48%,50%,52%,54%,56%,58%,60%,62%,64%,66%,68%,70%,72%,74%,76%,78%, 90%,92%,94%,96% {
                fill:rgb(129, 255, 122);
            }
        }

        .move {
            animation: move 15s infinite;
        }

        @keyframes move {
            0%, 25%, 100% {
                transform: translate3d(0px, 0px, 0px);
                animation-timing-function: ease-in;
            }
            30%, 98% {
                transform: translate3d(25px, 0px, 0px);
                animation-timing-function: ease-out;
            }
        }
    </style>
    <g id="com.abe/pair" stroke="none" fill="none">
        <path d="M551,5 C632.738143,5 699,71.261857 699,153 L699,294.939759 C699,376.677902 632.738143,442.939759 551,442.939759 L409,442.939759 C327.261857,442.939759 261,376.677902 261,294.939759 L261,153 C261,71.261857 327.261857,5 409,5 L551,5 Z M551,25 L409,25 C338.307552,25 281,82.307552 281,153 L281,294.939759 C281,365.632207 338.307552,422.939759 409,422.939759 L551,422.939759 C621.692448,422.939759 679,365.632207 679,294.939759 L679,153 C679,82.307552 621.692448,25 551,25 Z" id="Rectangle" fill="#000000" fill-rule="nonzero"></path>
        <path d="M551,517.060241 C632.738143,517.060241 699,583.322098 699,665.060241 L699,807 C699,888.738143 632.738143,955 551,955 L409,955 C327.261857,955 261,888.738143 261,807 L261,665.060241 C261,583.322098 327.261857,517.060241 409,517.060241 L551,517.060241 Z M551,537.060241 L409,537.060241 C338.307552,537.060241 281,594.367793 281,665.060241 L281,807 C281,877.692448 338.307552,935 409,935 L551,935 C621.692448,935 679,877.692448 679,807 L679,665.060241 C679,594.367793 621.692448,537.060241 551,537.060241 Z" id="Rectangle" fill="#000000" fill-rule="nonzero"></path>
        <path d="M621.58331,474.999944 C624.344734,474.999944 626.58331,477.23852 626.58331,479.999944 C626.58331,482.761368 624.344734,484.999944 621.58331,484.999944 L338.740349,484.999944 C335.978925,484.999944 333.740349,482.761368 333.740349,479.999944 C333.740349,477.23852 335.978925,474.999944 338.740349,474.999944 L621.58331,474.999944 Z" id="Path-2" fill="#000000" fill-rule="nonzero"></path>
        <path d="M480,77 C561.185858,77 627,142.814142 627,224 C627,305.185858 561.185858,371 480,371 C398.814142,371 333,305.185858 333,224 C333,142.814142 398.814142,77 480,77 Z M480,87 C404.336989,87 343,148.336989 343,224 C343,299.663011 404.336989,361 480,361 C555.663011,361 617,299.663011 617,224 C617,148.336989 555.663011,87 480,87 Z" id="Oval" fill="#000000" fill-rule="nonzero"></path>
        <path d="M480,551 C582.172679,551 665,633.827321 665,736 C665,838.172679 582.172679,921 480,921 C377.827321,921 295,838.172679 295,736 C295,633.827321 377.827321,551 480,551 Z M480,561 C383.350169,561 305,639.350169 305,736 C305,832.649831 383.350169,911 480,911 C576.649831,911 655,832.649831 655,736 C655,639.350169 576.649831,561 480,561 Z" id="Oval" fill="#000000" fill-rule="nonzero"></path>
        <path d="M494.5,581 C508.030976,581 519,591.969024 519,605.5 L519,606.5 C519,620.030976 508.030976,631 494.5,631 L465.5,631 C451.969024,631 441,620.030976 441,606.5 L441,605.5 C441,591.969024 451.969024,581 465.5,581 L494.5,581 Z M494.5,591 L465.5,591 C457.491871,591 451,597.491871 451,605.5 L451,606.5 C451,614.508129 457.491871,621 465.5,621 L494.5,621 C502.508129,621 509,614.508129 509,606.5 L509,605.5 C509,597.491871 502.508129,591 494.5,591 Z" id="Rectangle-2" fill="#000000" fill-rule="nonzero"></path>
        <circle id="button-fill" class="move" fill="#0074CC" fill-rule="evenodd" cx="467" cy="606" r="9"></circle>
        <path class="move" d="M467,592 C474.731986,592 481,598.268014 481,606 C481,613.731986 474.731986,620 467,620 C459.268014,620 453,613.731986 453,606 C453,598.268014 459.268014,592 467,592 Z M467,602 C464.790861,602 463,603.790861 463,606 C463,608.209139 464.790861,610 467,610 C469.209139,610 471,608.209139 471,606 C471,603.790861 469.209139,602 467,602 Z" id="Buttton-line" fill="#000000" fill-rule="nonzero"></path>
        <path d="M480,91 C553.453872,91 613,150.546128 613,224 C613,297.453872 553.453872,357 480,357 C406.546128,357 347,297.453872 347,224 C347,150.546128 406.546128,91 480,91 Z M480,101 C412.068976,101 357,156.068976 357,224 C357,291.931024 412.068976,347 480,347 C547.931024,347 603,291.931024 603,224 C603,156.068976 547.931024,101 480,101 Z" id="Oval" fill="#000000" fill-rule="nonzero"></path>
        <path d="M480,167 C511.480231,167 537,192.519769 537,224 C537,255.480231 511.480231,281 480,281 C448.519769,281 423,255.480231 423,224 C423,192.519769 448.519769,167 480,167 Z M480,177 C454.042617,177 433,198.042617 433,224 C433,249.957383 454.042617,271 480,271 C505.957383,271 527,249.957383 527,224 C527,198.042617 505.957383,177 480,177 Z" id="Oval" fill="#000000" fill-rule="nonzero"></path>
        <circle id="button" fill="#0074CC" fill-rule="evenodd" cx="480" cy="224" r="38"></circle>
        <path d="M480,181 C503.748244,181 523,200.251756 523,224 C523,247.748244 503.748244,267 480,267 C456.251756,267 437,247.748244 437,224 C437,200.251756 456.251756,181 480,181 Z M480,191 C461.774603,191 447,205.774603 447,224 C447,242.225397 461.774603,257 480,257 C498.225397,257 513,242.225397 513,224 C513,205.774603 498.225397,191 480,191 Z" id="Oval" fill="#000000" fill-rule="nonzero"></path>
        <path d="M480.000004,43.5 C489.293542,43.5 498.500807,44.2109263 507.565856,45.6166945 C512.204826,46.3360856 515.504395,51.8922454 514.662849,57.3186577 C513.821303,62.7450699 509.599616,67.1348664 504.960647,66.4154753 C496.756802,65.143259 488.4205,64.4995829 480.000004,64.4995829 C471.438284,64.4995829 462.963704,65.165031 454.627053,66.479961 C449.989963,67.2113638 445.712288,62.5167169 444.906503,57.4082941 C444.100718,52.2998714 447.341254,46.4193863 451.978344,45.6879835 C461.190334,44.2349875 470.550507,43.5 480.000004,43.5 Z" id="led" fill="#FFF67A" fill-rule="evenodd"></path>
        <path d="M480.000004,38.5 C489.530626,38.5 498.994372,39.2277024 508.332076,40.6757526 C515.889778,41.8477678 520.845989,50.0749984 519.603785,58.0849142 C518.350817,66.1642428 511.776396,72.5321958 504.194427,71.3564173 C496.226172,70.1207352 488.145719,69.4995829 480.000004,69.4995829 C471.717984,69.4995829 463.503538,70.1416976 455.406067,71.418902 C447.878298,72.606248 441.207098,66.0455709 439.967568,58.1873448 C438.740225,50.4063778 443.706009,41.9309552 451.199331,40.7490425 C460.688761,39.2522861 470.309737,38.5 480.000004,38.5 Z M480.000004,48.5 C470.830848,48.5 461.730809,49.2115529 452.757358,50.6269246 C451.202223,50.8722142 449.417757,53.9178766 449.845438,56.6292434 C450.308558,59.5652743 452.529123,61.7490512 453.84804,61.54102 C462.461567,60.1824187 471.19695,59.4995829 480.000004,59.4995829 C488.658122,59.4995829 497.250906,60.1601186 505.726866,61.4745334 C507.15524,61.6960393 509.236915,59.6797388 509.721913,56.5524012 C510.172535,53.6467224 508.467426,50.81627 506.799637,50.5576365 C497.969564,49.1883074 489.018148,48.5 480.000004,48.5 Z" id="Path" fill="#000000" fill-rule="nonzero"></path>
    </g>
</svg>