<?xml version="1.0" encoding="UTF-8"?>
<svg width="600px" height="600px" viewBox="0 0 600 600" version="1.1" xmlns="http://www.w3.org/2000/svg" xmlns:xlink="http://www.w3.org/1999/xlink">
    <title>assets/icon</title>
    <g id="/assets/icon" stroke="none" fill="none" fill-rule="evenodd" stroke-width="1">
        <g id="Group" transform="translate(106, 0)" fill="#000000">
            <path d="M312.52368,151 C327.47065,150.9947 342.06174,146.563474 354.464167,138.272324 C363.752642,132.01925 371.546419,123.811658 377.276091,114.232867 C383.005764,104.653899 386.546772,93.9381531 387.632207,82.848074 C388.735436,71.7581715 387.347503,60.5654556 383.592966,50.0652292 C379.838429,39.5651795 373.788465,30.0158897 365.905717,22.094657 C358.02297,14.2104336 348.485379,8.16853284 337.969118,4.40949808 C327.435062,0.650459795 316.20704,-0.731360738 305.067988,0.364738953 C293.94673,1.46084041 283.199147,5.00677034 273.625968,10.745177 C264.052789,16.4835836 255.903131,24.2699929 249.728609,33.5362806 C240.030872,48.0789148 235.653545,65.4996204 237.36177,82.8653862 C239.069995,100.231329 246.757009,116.482045 259.123848,128.882555 C266.116895,135.885179 274.426699,141.444174 283.590615,145.240147 C292.754532,149.036297 302.59462,150.99417 312.52368,151 Z" id="Path" fill-rule="nonzero"></path>
            <path d="M352.06786,507.92469 C368.350917,477.395869 376.571319,443.121605 375.957857,408.420713 C376.676485,373.609608 368.19317,339.239353 351.384287,308.881183 C335.995134,280.384179 313.034095,256.848509 285.095244,240.961932 C255.596445,224.014116 222.153956,215.405109 188.255751,216.036164 C154.182272,215.367779 120.54698,223.975009 90.8553776,240.961932 C62.8288889,256.932057 39.6750481,280.417954 23.9353441,308.84563 L26.9325483,310.63747 L23.9353441,308.904292 C7.54712213,339.381562 -0.690807609,373.678935 0.0453478149,408.38516 C-0.585642548,443.086053 7.63475968,477.363872 23.9178166,507.889138 C39.9029057,536.1035 62.9866365,559.521847 90.802795,575.737284 L92.5730736,572.68689 L90.8553776,575.772836 C120.950112,591.687856 154.375074,600 188.325861,600 C222.259121,600 255.70161,591.687856 285.796345,575.772836 L284.464254,573.397938 L285.813872,575.772836 C313.542393,559.655169 336.450849,536.194159 352.050333,507.901581 L348.983019,506.143517 L352.06786,507.92469 Z M303.341382,408.408269 C303.77957,430.715605 298.626482,452.772296 288.355361,472.50564 L291.422675,474.238818 L288.337834,472.599854 C279.206001,490.596464 265.289158,505.635118 248.164781,516.007522 C229.883588,526.360373 209.306291,531.794553 188.378444,531.794553 C167.450597,531.794553 146.8733,526.360373 128.592107,516.007522 C111.309982,505.553347 97.1477537,490.53247 87.6303157,472.553636 L87.7004258,472.553636 C77.4117773,452.827402 72.2586894,430.765378 72.7319321,408.456265 C72.2586894,386.147152 77.4117773,364.085128 87.7004258,344.358894 L84.6331115,342.638159 L87.7004258,344.300233 C97.0601161,326.0512 111.204817,310.783234 128.592107,300.17974 C146.855772,289.826889 167.433069,284.390931 188.360916,284.390931 C209.306291,284.390931 229.883588,289.826889 248.147253,300.17974 C265.411851,310.68191 279.363749,325.96943 288.355361,344.241571 L291.45773,342.625716 L289.91531,343.480751 L288.407944,344.26468 L288.407944,344.323342 C298.679065,364.054908 303.832153,386.113377 303.393965,408.420713 L306.899467,408.420713 L303.341382,408.408269 Z" id="Shape" fill-rule="nonzero"></path>
        </g>
    </g>
</svg>