<?xml version="1.0" encoding="UTF-8"?>
<svg width="960px" height="960px" viewBox="0 0 960 960" version="1.1" xmlns="http://www.w3.org/2000/svg" xmlns:xlink="http://www.w3.org/1999/xlink">
    <title>MSC-1 (Simple)</title>
    <g id="MSC-1-(Simple)" stroke="none" fill="none" fill-rule="nonzero">
        <path d="M480.055061,53 C583.563106,53 676.487622,77.9699937 748.804286,124.082081 C817.920555,168.153464 865.475514,229.966265 883.944423,300.993332 C932.923873,360.785434 959.110122,432.276814 959.110122,507.986979 C959.110122,512.318264 959.01583,516.642045 958.809397,520.955229 C959.015584,525.474442 959.110122,530.012805 959.110122,534.5625 C959.110122,637.418428 905.966619,732.775626 814.695775,802.044658 C725.769338,869.534427 606.630049,907.778646 480.055061,907.778646 C353.480073,907.778646 234.340784,869.534427 145.414348,802.044658 C54.1435033,732.775626 1,637.418428 1,534.5625 C1,530.013175 1.09452328,525.47471 1.30067556,520.950949 C1.09428843,516.64181 1,512.318171 1,507.986979 C1,432.277445 27.1858101,360.786136 76.164384,300.992052 C94.6339718,229.96538 142.189366,168.152951 211.305784,124.081807 C283.622687,77.9699178 376.547176,53 480.055061,53 Z M480.055061,201.125 C349.062466,201.125 234.87795,236.575387 153.227766,299.630172 C108.239864,334.372316 74.6836456,376.367681 54.1425138,422.854657 C45.5024857,450.029607 41,478.562916 41,507.986979 C41,512.318052 41.1088764,516.629826 41.3246059,520.91585 C41.1086582,525.442069 41,529.991536 41,534.5625 C41,718.592696 237.571647,867.778646 480.055061,867.778646 C722.538476,867.778646 919.110122,718.592696 919.110122,534.5625 C919.110122,529.991536 919.001464,525.442069 918.785457,520.920809 C919.001246,516.629826 919.110122,512.318052 919.110122,507.986979 C919.110122,478.562916 914.607637,450.029607 905.967668,422.854524 C885.426477,376.367681 851.870258,334.372316 806.882356,299.630172 C725.232172,236.575387 611.047656,201.125 480.055061,201.125 Z M480.566185,331.378906 C689.840192,331.378906 860.619577,448.835889 860.619577,595.890625 C860.619577,742.945361 689.840192,860.402344 480.566185,860.402344 C271.292177,860.402344 100.512792,742.945361 100.512792,595.890625 C100.512792,448.835889 271.292177,331.378906 480.566185,331.378906 Z M480.566185,351.378906 C281.090501,351.378906 120.512792,461.819479 120.512792,595.890625 C120.512792,729.961771 281.090501,840.402344 480.566185,840.402344 C680.041868,840.402344 840.619577,729.961771 840.619577,595.890625 C840.619577,461.819479 680.041868,351.378906 480.566185,351.378906 Z M407.863136,804.124613 C431.291422,807.95861 455.459441,809.915365 480.011123,809.915365 C502.265822,809.915365 524.20849,808.307654 545.576068,805.149598 C548.307817,804.745855 550.849636,806.633076 551.253379,809.364825 C551.657123,812.096574 549.769901,814.638393 547.038152,815.042136 C525.185738,818.271849 502.754392,819.915365 480.011123,819.915365 C454.919498,819.915365 430.211368,817.91488 406.248136,813.99334 C403.522963,813.547371 401.675303,810.976651 402.121272,808.251477 C402.567242,805.526303 405.137962,803.678643 407.863136,804.124613 Z M607.102382,581.580729 C607.225096,581.580729 607.347789,581.583956 607.470334,581.590406 C611.330982,581.793621 614.295919,585.088032 614.092705,588.948681 L610.740639,652.630973 C610.544941,656.348829 607.47332,659.263021 603.750317,659.263021 L356.359806,659.263021 C352.636802,659.263021 349.565181,656.348829 349.369483,652.630973 L346.017418,588.948681 C346.010967,588.826136 346.00774,588.703443 346.00774,588.580729 C346.00774,584.714736 349.141747,581.580729 353.00774,581.580729 L607.102382,581.580729 Z M482.365369,159.217448 C340.184542,159.217448 219.641048,205.317941 142.567194,282.598499 L141.003495,283.800858 C226.321305,217.913729 344.816576,181.125 480.055061,181.125 C615.293546,181.125 733.788818,217.913729 819.106628,283.800858 C825.243282,288.539921 831.181387,293.410219 836.917064,298.405309 C760.86972,211.514435 633.847811,159.217448 482.365369,159.217448 Z M480.055061,93 C311.037126,93 184.284528,163.760535 132.741524,264.200767 C157.238562,240.454934 185.639056,219.651305 217.336884,202.178171 C260.61875,170.414498 312.720952,145.339964 379.363737,132.467194 C396.279454,128.8941 400.943499,141.599828 390.658475,145.730784 C420.076885,141.436405 450.723656,139.217448 482.365369,139.217448 C511.866699,139.217448 540.506551,141.144975 568.097932,144.882323 C560.142465,140.110115 565.223816,129.112088 581.107538,132.467194 C641.538548,144.140093 690.013302,165.846113 730.793881,193.47835 C765.13667,210.560254 795.990136,231.374743 822.660198,255.482518 C768.389829,159.68986 644.139404,93 480.055061,93 Z" id="Combined-Shape" fill="#000000"></path>
    </g>
</svg>